<svg width="48" height="32" viewBox="0 0 48 32" fill="none" xmlns="http://www.w3.org/2000/svg">
<path d="M31.4553 0.723907C27.2914 0.724093 23.298 1.78984 20.3537 3.68673C17.4093 5.58362 15.7551 8.1563 15.7548 10.8389V11.0769H0V31.3909H31.9442V20.9469C36.0702 20.8706 39.9836 19.7503 42.8369 17.8288C45.6903 15.9072 47.2542 13.3389 47.1899 10.68C47.1256 8.02101 45.4384 5.48536 42.4935 3.62198C39.5486 1.7586 35.583 0.717438 31.4553 0.723907ZM5.43269 27.8909V14.5769H15.7548V20.9539H26.5115V27.8909H5.43269ZM31.9442 17.4469C31.7812 17.4539 31.6183 17.4539 31.4553 17.4539H21.1875V10.8389C21.1877 9.54402 21.7777 8.27764 22.8845 7.19676C23.9913 6.11589 25.5661 5.26805 27.4138 4.75838C29.2615 4.2487 31.3007 4.0996 33.2787 4.32956C35.2567 4.55951 37.0864 5.15841 38.541 6.052C39.9956 6.94559 41.0112 8.09458 41.4618 9.35651C41.9123 10.6184 41.7781 11.9378 41.0757 13.1511C40.3733 14.3643 39.1337 15.4181 37.5105 16.1817C35.8873 16.9453 33.9519 17.3852 31.9442 17.4469Z" fill="#111B47"/>
</svg>
