<svg width="30" height="30" viewBox="0 0 30 30" fill="none" xmlns="http://www.w3.org/2000/svg">
<g clip-path="url(#clip0_63_505)">
<path d="M25.7097 16.41C25.7697 15.96 25.7997 15.495 25.7997 15C25.7997 14.52 25.7697 14.04 25.6947 13.59L28.7397 11.22C28.8709 11.1118 28.9605 10.9615 28.9934 10.7947C29.0262 10.6278 29.0001 10.4548 28.9197 10.305L26.0397 5.32498C25.9549 5.17433 25.8195 5.05854 25.6575 4.99814C25.4955 4.93774 25.3174 4.93662 25.1547 4.99498L21.5697 6.43498C20.8197 5.86498 20.0247 5.38498 19.1397 5.02498L18.5997 1.21498C18.5731 1.04328 18.4858 0.886791 18.3537 0.773944C18.2216 0.661098 18.0534 0.599373 17.8797 0.59998H12.1197C11.7597 0.59998 11.4747 0.85498 11.4147 1.21498L10.8747 5.02498C9.98966 5.38498 9.17966 5.87998 8.44466 6.43498L4.85966 4.99498C4.52966 4.87498 4.15466 4.99498 3.97466 5.32498L1.10966 10.305C0.929656 10.62 0.989656 11.01 1.28966 11.22L4.33466 13.59C4.25966 14.04 4.19966 14.535 4.19966 15C4.19966 15.465 4.22966 15.96 4.30466 16.41L1.25966 18.78C1.12844 18.8881 1.03879 19.0384 1.00596 19.2053C0.973143 19.3721 0.999186 19.5452 1.07966 19.695L3.95966 24.675C4.13966 25.005 4.51466 25.11 4.84466 25.005L8.42966 23.565C9.17966 24.135 9.97466 24.615 10.8597 24.975L11.3997 28.785C11.4747 29.145 11.7597 29.4 12.1197 29.4H17.8797C18.2397 29.4 18.5397 29.145 18.5847 28.785L19.1247 24.975C20.0097 24.615 20.8197 24.135 21.5547 23.565L25.1397 25.005C25.4697 25.125 25.8447 25.005 26.0247 24.675L28.9047 19.695C29.0847 19.365 29.0097 18.99 28.7247 18.78L25.7097 16.41ZM14.9997 20.4C12.0297 20.4 9.59966 17.97 9.59966 15C9.59966 12.03 12.0297 9.59998 14.9997 9.59998C17.9697 9.59998 20.3997 12.03 20.3997 15C20.3997 17.97 17.9697 20.4 14.9997 20.4Z" fill="#DAA11F"/>
</g>
<defs>
<clipPath id="clip0_63_505">
<rect width="30" height="30" fill="white"/>
</clipPath>
</defs>
</svg>
